<?xml version="1.0" encoding="UTF-8"?> <svg xmlns="http://www.w3.org/2000/svg" id="Ebene_2" viewBox="0 0 508.16 140"><defs><style>.cls-1{fill:#1f2937;}</style></defs><g id="Layer_1"><g><g><path class="cls-1" d="m10.14,45.52l6.06-6.06c8.24-8.24,22.33-2.4,22.33,9.25v42.59c0,11.66-14.09,17.49-22.33,9.25l-6.06-6.06c-13.52-13.52-13.52-35.44,0-48.96Z"></path><path class="cls-1" d="m103.29,132.33h0c-12.3,10.23-32.42,10.23-44.72,0h0s0-124.65,0-124.65h0c12.3-10.23,32.42-10.23,44.72,0h0s0,124.65,0,124.65Z"></path></g><g><path class="cls-1" d="m217.73,105.88h-16.38v-35.07c0-4.33-.77-7.58-2.31-9.75-1.54-2.17-3.99-3.25-7.36-3.25-4.58,0-7.9,1.53-9.94,4.59-2.04,3.06-3.06,8.14-3.06,15.23v28.25h-16.38v-60.05h12.51l2.2,7.68h.91c1.83-2.9,4.34-5.09,7.55-6.58,3.21-1.49,6.85-2.23,10.93-2.23,6.98,0,12.28,1.89,15.9,5.67,3.62,3.78,5.42,9.23,5.42,16.35v39.16Z"></path><path class="cls-1" d="m287.51,75.75c0,9.78-2.58,17.42-7.73,22.93-5.16,5.51-12.34,8.27-21.54,8.27-5.77,0-10.85-1.26-15.25-3.79-4.4-2.52-7.79-6.15-10.15-10.88s-3.54-10.24-3.54-16.54c0-9.81,2.56-17.44,7.68-22.88,5.12-5.44,12.32-8.16,21.59-8.16,5.76,0,10.85,1.25,15.25,3.76,4.4,2.51,7.79,6.11,10.15,10.8,2.36,4.69,3.54,10.19,3.54,16.49Zm-41.52,0c0,5.94.98,10.44,2.93,13.48,1.95,3.04,5.13,4.57,9.53,4.57s7.51-1.51,9.43-4.54c1.92-3.03,2.87-7.53,2.87-13.51s-.97-10.4-2.9-13.37c-1.93-2.97-5.1-4.46-9.51-4.46s-7.52,1.48-9.45,4.43c-1.93,2.96-2.9,7.42-2.9,13.4Z"></path><path class="cls-1" d="m324.69,93.9c2.86,0,6.3-.63,10.31-1.88v12.19c-4.08,1.83-9.1,2.74-15.04,2.74-6.55,0-11.32-1.66-14.31-4.97-2.99-3.31-4.49-8.28-4.49-14.9v-28.95h-7.84v-6.93l9.02-5.48,4.73-12.68h10.47v12.78h16.81v12.3h-16.81v28.95c0,2.33.65,4.05,1.96,5.16,1.31,1.11,3.03,1.67,5.18,1.67Z"></path><path class="cls-1" d="m383.63,105.88l-3.17-8.16h-.43c-2.76,3.47-5.59,5.88-8.51,7.22-2.92,1.34-6.72,2.01-11.41,2.01-5.77,0-10.3-1.65-13.62-4.94-3.31-3.29-4.97-7.98-4.97-14.07s2.23-11.07,6.69-14.1c4.46-3.03,11.18-4.7,20.17-5.02l10.42-.32v-2.63c0-6.09-3.12-9.13-9.35-9.13-4.8,0-10.44,1.45-16.92,4.35l-5.42-11.06c6.91-3.62,14.57-5.42,22.99-5.42s14.23,1.75,18.53,5.26c4.3,3.51,6.45,8.84,6.45,16.01v40.01h-11.44Zm-4.83-27.82l-6.34.21c-4.76.14-8.31,1-10.63,2.58-2.33,1.58-3.49,3.97-3.49,7.2,0,4.62,2.65,6.93,7.95,6.93,3.79,0,6.83-1.09,9.1-3.28,2.27-2.18,3.41-5.08,3.41-8.7v-4.94Z"></path><path class="cls-1" d="m443.8,44.7c2.22,0,4.06.16,5.53.48l-1.24,15.36c-1.33-.36-2.94-.54-4.83-.54-5.23,0-9.3,1.34-12.22,4.03-2.92,2.69-4.38,6.45-4.38,11.28v30.56h-16.38v-60.05h12.41l2.42,10.1h.81c1.86-3.37,4.38-6.08,7.55-8.14,3.17-2.06,6.62-3.09,10.34-3.09Z"></path><path class="cls-1" d="m496.72,105.88l-3.17-8.16h-.43c-2.76,3.47-5.59,5.88-8.51,7.22-2.92,1.34-6.72,2.01-11.41,2.01-5.77,0-10.3-1.65-13.62-4.94-3.31-3.29-4.97-7.98-4.97-14.07s2.23-11.07,6.69-14.1c4.46-3.03,11.18-4.7,20.17-5.02l10.42-.32v-2.63c0-6.09-3.12-9.13-9.35-9.13-4.8,0-10.44,1.45-16.92,4.35l-5.42-11.06c6.91-3.62,14.57-5.42,22.99-5.42s14.23,1.75,18.53,5.26c4.3,3.51,6.45,8.84,6.45,16.01v40.01h-11.44Zm-4.83-27.82l-6.34.21c-4.76.14-8.31,1-10.63,2.58-2.33,1.58-3.49,3.97-3.49,7.2,0,4.62,2.65,6.93,7.95,6.93,3.79,0,6.83-1.09,9.1-3.28,2.27-2.18,3.41-5.08,3.41-8.7v-4.94Z"></path></g></g></g></svg> 