<svg xmlns="http://www.w3.org/2000/svg" xmlns:xlink="http://www.w3.org/1999/xlink" id="Ebene_1" x="0px" y="0px" viewBox="0 0 1417.3 473.3" style="enable-background:new 0 0 1417.3 473.3;" xml:space="preserve"><style type="text/css">	.st0{fill:#808080;}	.st1{fill:#137BC0;}</style><g>	<polygon class="st0" points="575.6,307 569.7,307 565.1,307 518.9,417 472.9,307 468.3,307 462.2,307 460.3,307 460.3,432   470.3,432 470.3,376.1 469,321.6 514.9,432 523,432 569.9,321.2 569.3,376.1 569.3,432 580.3,432 580.3,307  "></polygon>	<polygon class="st0" points="621.3,422 621.3,372 680.3,372 680.3,363 621.3,363 621.3,316 688.3,316 688.3,307 621.2,307   618.1,307 611.3,307 611.3,432 618.1,432 621.2,432 688.3,432 688.3,422  "></polygon>	<polygon class="st0" points="793.3,307 793.3,363 722.3,363 722.3,307 711.3,307 711.3,432 722.3,432 722.3,372 793.3,372   793.3,432 804.3,432 804.3,307  "></polygon>	<path class="st0" d="M891.7,376.4c4.4-1.3,8.2-3.2,11.7-5.8c4.4-3.2,7.7-7.2,10.1-12c2.5-4.8,3.6-10.1,3.6-16  c0-7.9-1.8-14.6-5.2-20.1c-3.5-5.5-8.4-9-14.7-11.8c-6.3-2.8-13.8-3.7-22.4-3.7h-39.5v125h10v-54h35.8l30,54h12.2v-2.5L891.7,376.4  z M845.3,370v-54h29.5c10.3,0,18.1,1.9,23.6,6.9c5.5,5,8.2,11.4,8.2,19.9c0,4.7-1.1,9-3.3,13.2c-2.2,4.1-5.5,7.5-9.8,10.1  c-4.3,2.5-9.8,3.9-16.4,3.9H845.3z"></path>	<polygon class="st0" points="1072,307 1049.4,397.4 1045.4,416.7 1040.7,398.4 1014.1,307 1013.1,307 1005.6,307 1004.6,307   977.5,398.3 972.8,416.6 968.9,397.6 946.1,307 935.3,307 967.3,432 969.2,432 975.7,432 977.4,432 1006.2,333.8 1009.3,321   1012.5,333.9 1040.8,432 1042.4,432 1048.9,432 1050.9,432 1082.8,307  "></polygon>	<polygon class="st0" points="1114.3,422 1114.3,372 1172.3,372 1172.3,363 1114.3,363 1114.3,316 1181.3,316 1181.3,307   1113.7,307 1110.5,307 1104.3,307 1104.3,432 1110.5,432 1113.7,432 1181.3,432 1181.3,422  "></polygon>	<path class="st0" d="M1259.8,376.4c4.4-1.3,8.3-3.2,11.8-5.8c4.4-3.2,7.7-7.2,10.2-12c2.5-4.8,3.7-10.1,3.7-16  c0-7.9-1.7-14.6-5.2-20.1c-3.5-5.5-8.4-9-14.7-11.8c-6.3-2.8-13.8-3.7-22.4-3.7h-39.8v125h12v-54h34.2l30,54h11.8v-2.5  L1259.8,376.4z M1215.3,370v-54h27.8c10.3,0,18.1,1.9,23.6,6.9c5.5,5,8.2,11.4,8.2,19.9c0,4.7-1.1,9-3.3,13.2  c-2.2,4.1-5.5,7.5-9.8,10.1c-4.3,2.5-9.8,3.9-16.4,3.9H1215.3z"></path>	<polygon class="st0" points="1393.3,307 1350.3,307 1339.9,307 1298.3,307 1298.3,316 1341.3,316 1341.3,432 1351.3,432   1351.3,316 1393.3,316  "></polygon></g><g>	<g>		<path class="st1" d="M132.9,379.8c-2.1-4.4-5.5-7.9-10.2-10.7c-2-1.1-4.2-2-6.7-2.6c1-0.4,2-0.9,2.9-1.4c5-2.7,8.7-6.3,11-10.7   c2.3-4.4,3.5-9.2,3.5-14.3c0-11.6-4.1-19.7-12.4-25.3c-8.3-5.6-19.8-7.9-34.4-7.9H42.3v125h10.4h16.7h21.2   c14.6,0,25.8-3.8,33.6-10c7.8-6.2,11.7-15.7,11.7-27.9C136,389.2,135,384.2,132.9,379.8z M86.5,328c6.9,0,12,1,15.2,3.4   c3.2,2.4,4.8,6.3,4.8,11.7c0,4.8-1.6,9.5-4.9,12c-3.3,2.5-8.3,4.8-15.1,4.8H69.3v-32H86.5z M104.8,405.6c-3,2.9-7.7,5.4-14.1,5.4   H69.3v-34h22.4c4.2,0,7.5,0.5,10.1,1.9c2.5,1.4,4.4,3.2,5.6,5.7c1.2,2.5,1.8,6,1.8,9.5C109.2,398.5,107.7,402.6,104.8,405.6z"></path>		<path class="st1" d="M243.2,334.4c-4.9-8.9-11.5-15.4-20.1-20.4c-8.6-5-18.4-7-29.7-7h-11.8h-15.8h-11.5v125h12h15.3h11.6   c11.4,0,21.3-3.2,29.9-8.2c8.6-5,15.1-12.3,20-21.3c4.8-9,7.1-19.7,7.1-31.6v-5.3C250.3,353.7,248.1,343.3,243.2,334.4z    M224.3,370.9c0,8.2-1.6,15.2-3.9,20.8c-2.3,5.7-5.9,11-10.4,13.9c-4.5,2.9-10.2,5.4-16.8,5.4h-11v-83h11.2c6.5,0,12,1.3,16.4,4.1   c4.5,2.9,8.3,7,10.5,12.6c2.3,5.6,3.9,12.4,3.9,20.7V370.9z"></path>		<path class="st1" d="M341.4,366.6c-6.2-3.6-13.8-6.8-22.9-9.4c-5.1-1.6-9.5-3.2-13.1-4.8c-3.6-1.6-6.3-3.4-8.2-5.4   c-1.9-1.9-2.8-4.2-2.8-6.8c0-2.5,0.7-4.8,2.1-6.8c1.4-2,3.5-3.6,6.4-4.8c2.9-1.2,6.4-1.8,10.7-1.8c4.5,0,8.1,0.7,11,2.1   c2.9,1.4,5,4.6,6.5,7.1c1.4,2.5,2.1,5.9,2.1,9.9h26.8c0-8-1.9-15.1-5.7-20.8c-3.8-5.6-9.1-10.7-16.1-13.8   c-6.9-3.2-15-5.1-24.2-5.1c-9,0-17,1.3-24,4.1c-7,2.8-12.5,6.7-16.5,11.8c-4,5.1-6,11-6,17.8c0,5.3,1.1,10,3.3,14   c2.2,4,5.3,7.5,9.2,10.5c3.9,3,8.3,5.6,13.4,7.9c5.1,2.2,10.4,4.3,16,6c6.6,2.1,11.6,4,15,5.8c3.4,1.8,5.7,3.7,6.9,5.7   c1.2,2,1.8,4.4,1.8,7.1c0,2.4-0.7,4.7-2,6.6c-1.3,2-3.3,3.5-6,4.7c-2.7,1.1-6.2,1.7-10.5,1.7c-3.7,0-7-0.3-9.9-1   c-2.9-0.7-5.5-1.8-7.5-3.4c-2.1-1.6-3.7-3.8-4.8-6.3c-1.1-2.5-1.7-4.4-1.7-9.4h-27c0,6,1.5,13.2,4.4,18.2   c2.9,5.1,6.8,9.4,11.7,12.7c4.9,3.3,10.3,5.8,16.4,7.4c6,1.6,12.2,2.4,18.5,2.4c9.2,0,17.2-1.3,24-4c6.8-2.7,12.1-6.5,15.8-11.6   c3.7-5.1,5.6-11.1,5.6-18.2c0-6.7-1.6-12.5-4.7-17.5C352.2,374.5,347.5,370.3,341.4,366.6z"></path>	</g>	<path class="st1" d="M42.3,49v245h27V77h327v326h-24c-0.8,7-3.1,13.2-7,18.3c-3,4-6.6,6.7-11,10.7h69.9V49H42.3z"></path></g><g>	<path class="st0" d="M1388.3,441.8c0,7.7-6,13.7-13.8,13.7c-7.7,0-13.9-6-13.9-13.7c0-7.5,6.2-13.5,13.9-13.5  C1382.3,428.3,1388.3,434.3,1388.3,441.8z M1364,441.8c0,6,4.4,10.8,10.5,10.8c5.9,0,10.3-4.8,10.3-10.7c0-6-4.4-10.9-10.4-10.9  C1368.5,431,1364,435.9,1364,441.8z M1372.4,448.9h-3.1v-13.5c1.2-0.2,3-0.4,5.2-0.4c2.6,0,3.7,0.4,4.7,1c0.7,0.6,1.3,1.6,1.3,3  c0,1.5-1.2,2.6-2.8,3.1v0.2c1.3,0.5,2.1,1.5,2.5,3.3c0.4,2.1,0.7,2.9,1,3.4h-3.4c-0.4-0.5-0.7-1.7-1.1-3.3  c-0.2-1.5-1.1-2.1-2.8-2.1h-1.5V448.9z M1372.4,441.3h1.5c1.7,0,3.1-0.6,3.1-2c0-1.2-0.9-2.1-2.9-2.1c-0.8,0-1.4,0.1-1.7,0.2V441.3  z"></path></g></svg>